<mxfile host="app.diagrams.net" modified="2021-10-18T04:11:02.356Z" agent="5.0 (Macintosh; Intel Mac OS X 10_15_7) AppleWebKit/605.1.15 (KHTML, like Gecko) Version/15.0 Safari/605.1.15" etag="HZKoogt_Sb9UoaZxtL0L" version="15.5.2" type="github">
  <diagram id="HRoFPdvYV1PzxjOj2xbK" name="Page-1">
    <mxGraphModel dx="946" dy="612" grid="1" gridSize="10" guides="1" tooltips="1" connect="1" arrows="1" fold="1" page="1" pageScale="1" pageWidth="827" pageHeight="1169" math="0" shadow="0">
      <root>
        <mxCell id="0" />
        <mxCell id="1" parent="0" />
        <mxCell id="Qc6O-j1226_PHLVo18gN-1" value="" style="rounded=0;whiteSpace=wrap;html=1;" vertex="1" parent="1">
          <mxGeometry x="80" y="80" width="660" height="630" as="geometry" />
        </mxCell>
        <mxCell id="Qc6O-j1226_PHLVo18gN-2" value="&lt;font style=&quot;font-size: 18px&quot;&gt;提交作业&lt;/font&gt;" style="rounded=0;whiteSpace=wrap;html=1;strokeColor=none;" vertex="1" parent="1">
          <mxGeometry x="90" y="90" width="80" height="30" as="geometry" />
        </mxCell>
        <mxCell id="Qc6O-j1226_PHLVo18gN-3" value="" style="rounded=1;whiteSpace=wrap;html=1;fontSize=18;strokeColor=default;" vertex="1" parent="1">
          <mxGeometry x="270" y="140" width="240" height="30" as="geometry" />
        </mxCell>
        <mxCell id="Qc6O-j1226_PHLVo18gN-4" value="-yt&lt;font style=&quot;font-size: 12px&quot;&gt;（路径及jar包）：&lt;/font&gt;" style="rounded=0;whiteSpace=wrap;html=1;fontSize=18;strokeColor=none;" vertex="1" parent="1">
          <mxGeometry x="110" y="135" width="160" height="35" as="geometry" />
        </mxCell>
        <mxCell id="Qc6O-j1226_PHLVo18gN-5" value="" style="rounded=1;whiteSpace=wrap;html=1;fontSize=18;strokeColor=default;" vertex="1" parent="1">
          <mxGeometry x="270" y="195" width="240" height="30" as="geometry" />
        </mxCell>
        <mxCell id="Qc6O-j1226_PHLVo18gN-6" value="-ys&lt;font style=&quot;font-size: 12px&quot;&gt;（每个TM中slot数量）：&lt;/font&gt;" style="rounded=0;whiteSpace=wrap;html=1;fontSize=18;strokeColor=none;" vertex="1" parent="1">
          <mxGeometry x="110" y="190" width="160" height="35" as="geometry" />
        </mxCell>
        <mxCell id="Qc6O-j1226_PHLVo18gN-7" value="" style="rounded=1;whiteSpace=wrap;html=1;fontSize=18;strokeColor=default;" vertex="1" parent="1">
          <mxGeometry x="270" y="245" width="240" height="30" as="geometry" />
        </mxCell>
        <mxCell id="Qc6O-j1226_PHLVo18gN-8" value="-yqu&lt;font style=&quot;font-size: 12px&quot;&gt;（路径及jar包）：&lt;/font&gt;" style="rounded=0;whiteSpace=wrap;html=1;fontSize=18;strokeColor=none;" vertex="1" parent="1">
          <mxGeometry x="110" y="240" width="160" height="35" as="geometry" />
        </mxCell>
        <mxCell id="Qc6O-j1226_PHLVo18gN-9" value="" style="rounded=1;whiteSpace=wrap;html=1;fontSize=18;strokeColor=default;" vertex="1" parent="1">
          <mxGeometry x="270" y="295" width="240" height="30" as="geometry" />
        </mxCell>
        <mxCell id="Qc6O-j1226_PHLVo18gN-10" value="-ynm&lt;font style=&quot;font-size: 12px&quot;&gt;（路径及jar包）：&lt;/font&gt;" style="rounded=0;whiteSpace=wrap;html=1;fontSize=18;strokeColor=none;" vertex="1" parent="1">
          <mxGeometry x="110" y="290" width="160" height="35" as="geometry" />
        </mxCell>
        <mxCell id="Qc6O-j1226_PHLVo18gN-11" value="" style="rounded=1;whiteSpace=wrap;html=1;fontSize=18;strokeColor=default;" vertex="1" parent="1">
          <mxGeometry x="270" y="345" width="240" height="30" as="geometry" />
        </mxCell>
        <mxCell id="Qc6O-j1226_PHLVo18gN-12" value="-yjm&lt;font style=&quot;font-size: 12px&quot;&gt;（路径及jar包）：&lt;/font&gt;" style="rounded=0;whiteSpace=wrap;html=1;fontSize=18;strokeColor=none;" vertex="1" parent="1">
          <mxGeometry x="110" y="340" width="160" height="35" as="geometry" />
        </mxCell>
        <mxCell id="Qc6O-j1226_PHLVo18gN-13" value="" style="rounded=1;whiteSpace=wrap;html=1;fontSize=18;strokeColor=default;" vertex="1" parent="1">
          <mxGeometry x="270" y="395" width="240" height="30" as="geometry" />
        </mxCell>
        <mxCell id="Qc6O-j1226_PHLVo18gN-14" value="-ytm&lt;font style=&quot;font-size: 12px&quot;&gt;（&lt;span style=&quot;font-size: 13px ; font-stretch: normal ; line-height: normal ; font-family: &amp;#34;pingfang sc&amp;#34;&quot;&gt;每一个&lt;/span&gt;&lt;span style=&quot;font-family: &amp;#34;helvetica neue&amp;#34; ; font-size: 13px&quot;&gt;TM Container&lt;/span&gt;&lt;span style=&quot;font-size: 13px ; font-stretch: normal ; line-height: normal ; font-family: &amp;#34;pingfang sc&amp;#34;&quot;&gt;内存，&lt;/span&gt;&lt;span style=&quot;font-family: &amp;#34;helvetica neue&amp;#34; ; font-size: 13px&quot;&gt;MB&lt;/span&gt;）：&lt;br&gt;&lt;/font&gt;" style="rounded=0;whiteSpace=wrap;html=1;fontSize=18;strokeColor=none;" vertex="1" parent="1">
          <mxGeometry x="110" y="390" width="160" height="35" as="geometry" />
        </mxCell>
        <mxCell id="Qc6O-j1226_PHLVo18gN-15" value="" style="rounded=1;whiteSpace=wrap;html=1;fontSize=18;strokeColor=default;" vertex="1" parent="1">
          <mxGeometry x="270" y="445" width="240" height="30" as="geometry" />
        </mxCell>
        <mxCell id="Qc6O-j1226_PHLVo18gN-16" value="-yn&lt;font style=&quot;font-size: 12px&quot;&gt;（TM数量）：&lt;/font&gt;" style="rounded=0;whiteSpace=wrap;html=1;fontSize=18;strokeColor=none;" vertex="1" parent="1">
          <mxGeometry x="110" y="440" width="160" height="35" as="geometry" />
        </mxCell>
        <mxCell id="Qc6O-j1226_PHLVo18gN-17" value="" style="rounded=1;whiteSpace=wrap;html=1;fontSize=18;strokeColor=default;" vertex="1" parent="1">
          <mxGeometry x="270" y="495" width="240" height="30" as="geometry" />
        </mxCell>
        <mxCell id="Qc6O-j1226_PHLVo18gN-18" value="-c&lt;font style=&quot;font-size: 12px&quot;&gt;（jar中主函数所在类名）：&lt;/font&gt;" style="rounded=0;whiteSpace=wrap;html=1;fontSize=18;strokeColor=none;" vertex="1" parent="1">
          <mxGeometry x="110" y="490" width="160" height="35" as="geometry" />
        </mxCell>
        <mxCell id="Qc6O-j1226_PHLVo18gN-19" value="" style="rounded=1;whiteSpace=wrap;html=1;fontSize=18;strokeColor=default;" vertex="1" parent="1">
          <mxGeometry x="270" y="545" width="240" height="30" as="geometry" />
        </mxCell>
        <mxCell id="Qc6O-j1226_PHLVo18gN-20" value="-C&lt;font style=&quot;font-size: 12px&quot;&gt;（配置文件路径）：&lt;/font&gt;" style="rounded=0;whiteSpace=wrap;html=1;fontSize=18;strokeColor=none;" vertex="1" parent="1">
          <mxGeometry x="110" y="540" width="160" height="35" as="geometry" />
        </mxCell>
        <mxCell id="Qc6O-j1226_PHLVo18gN-21" value="" style="rounded=1;whiteSpace=wrap;html=1;fontSize=18;strokeColor=default;" vertex="1" parent="1">
          <mxGeometry x="270" y="595" width="240" height="30" as="geometry" />
        </mxCell>
        <mxCell id="Qc6O-j1226_PHLVo18gN-22" value="-p&lt;font style=&quot;font-size: 12px&quot;&gt;（并行度）：&lt;/font&gt;" style="rounded=0;whiteSpace=wrap;html=1;fontSize=18;strokeColor=none;" vertex="1" parent="1">
          <mxGeometry x="110" y="590" width="160" height="35" as="geometry" />
        </mxCell>
      </root>
    </mxGraphModel>
  </diagram>
</mxfile>
